<?xml version="1.0" standalone="no"?>
<!DOCTYPE svg PUBLIC "-//W3C//DTD SVG 20010904//EN"
 "http://www.w3.org/TR/2001/REC-SVG-20010904/DTD/svg10.dtd">
<svg version="1.0" xmlns="http://www.w3.org/2000/svg"
 width="803.000000pt" height="865.000000pt" viewBox="0 0 803.000000 865.000000"
 preserveAspectRatio="xMidYMid meet">

<g transform="translate(0.000000,865.000000) scale(0.100000,-0.100000)"
fill="#000000" stroke="none">
<path d="M4820 8480 c-217 -26 -454 -188 -544 -374 -50 -105 -65 -191 -76
-456 -6 -129 -15 -287 -20 -350 -5 -63 -10 -146 -10 -185 0 -112 2 -109 -108
-140 -190 -54 -174 -46 -188 -90 -6 -22 -18 -74 -27 -115 -9 -41 -23 -109 -31
-150 -9 -41 -30 -140 -46 -220 -40 -194 -54 -251 -83 -345 -84 -271 -210 -512
-364 -698 -70 -83 -102 -152 -104 -220 -1 -23 -4 -55 -8 -71 -6 -29 -7 -30
-67 -27 -73 3 -125 -15 -244 -85 -145 -85 -161 -89 -355 -89 -93 1 -249 3
-345 5 -185 4 -242 -5 -332 -51 -82 -42 -136 -127 -145 -229 -6 -66 31 -294
53 -328 21 -32 62 -55 184 -103 206 -82 276 -123 306 -181 14 -27 14 -31 -3
-43 -10 -8 -38 -21 -63 -31 -25 -9 -89 -38 -143 -65 -55 -27 -100 -49 -102
-49 -1 0 -11 32 -20 70 -12 48 -27 80 -46 101 -27 29 -33 31 -82 27 -28 -3
-77 -17 -107 -31 -79 -36 -80 -36 -95 7 -33 93 -97 141 -210 157 -129 18 -213
-9 -262 -83 -24 -36 -28 -52 -28 -112 1 -82 14 -113 77 -176 68 -68 168 -133
291 -188 97 -44 127 -53 209 -62 135 -14 275 1 375 40 140 54 288 156 346 240
26 37 25 298 -2 356 -44 97 -129 153 -443 293 -38 16 -68 36 -68 43 0 19 86
74 155 99 49 18 81 22 175 22 70 0 127 -5 145 -12 46 -20 235 -26 292 -11 61
17 180 75 263 129 75 49 157 76 205 67 19 -4 36 -10 39 -14 9 -15 -59 -225
-105 -329 -11 -23 -19 -44 -19 -47 0 -2 -38 -89 -86 -193 -113 -249 -107 -235
-147 -338 -59 -155 -87 -252 -121 -425 -38 -193 -70 -265 -147 -334 -71 -65
-143 -90 -399 -140 -195 -39 -321 -93 -466 -203 -89 -66 -194 -177 -194 -204
0 -32 27 -34 139 -6 170 43 272 57 470 63 310 10 574 -17 1051 -111 666 -130
824 -153 1107 -162 237 -7 360 15 522 95 138 68 272 228 366 438 20 44 40 88
45 99 14 29 88 250 110 325 10 36 30 108 45 160 15 52 33 113 40 135 82 245
211 676 245 820 32 138 42 175 48 175 2 0 19 -8 36 -19 41 -24 148 -49 266
-60 452 -45 605 -85 694 -182 65 -69 65 -69 -224 -201 -286 -130 -389 -192
-482 -291 -85 -89 -108 -151 -138 -380 -19 -144 -15 -178 28 -235 20 -29 66
-70 102 -94 63 -42 67 -43 160 -47 86 -3 163 4 316 29 49 8 200 71 309 127 66
34 142 91 202 151 64 64 93 149 75 218 -17 64 -38 92 -96 125 -46 26 -60 29
-143 29 -50 0 -94 -4 -97 -9 -3 -4 -18 -11 -34 -14 -41 -8 -109 -78 -123 -127
-7 -23 -18 -44 -24 -46 -6 -3 -42 10 -80 27 -75 34 -174 44 -198 20 -7 -7 -14
-54 -17 -114 -6 -118 -8 -121 -105 -92 -63 18 -66 28 -38 111 25 75 72 142
152 216 90 83 241 161 414 212 65 20 131 45 147 56 33 24 68 92 101 200 18 58
24 99 24 180 0 105 0 106 -35 154 -80 110 -287 188 -580 216 -322 31 -430 51
-497 95 -37 24 -38 39 -9 118 40 109 55 197 45 251 -8 42 -50 118 -86 155 -33
33 -81 152 -112 276 -60 247 -63 635 -6 1020 26 183 31 234 24 247 -4 7 -68
24 -141 38 l-133 26 0 194 c0 225 7 272 77 525 44 158 51 192 51 280 1 93 -1
105 -30 165 -39 80 -96 149 -173 211 -152 121 -300 168 -470 149z m224 -87
c68 -25 138 -91 175 -165 27 -53 31 -72 31 -141 0 -87 -11 -136 -75 -342 -68
-215 -88 -352 -83 -568 l4 -179 -50 6 c-100 12 -423 27 -523 24 -56 -1 -104 0
-107 2 -2 3 0 84 5 180 30 583 47 681 162 904 72 139 150 231 230 270 63 32
157 35 231 9z m-746 -2658 c16 -34 15 -114 -1 -145 -7 -13 -28 -35 -46 -47
-75 -50 -173 -16 -207 73 -16 42 -16 50 -3 87 18 52 35 57 43 12 11 -57 76
-81 135 -50 31 15 41 33 41 71 0 32 24 31 38 -1z m732 -93 c26 -72 3 -146 -57
-183 -27 -17 -45 -20 -86 -16 -44 4 -56 10 -83 42 -37 42 -50 97 -34 140 l11
29 19 -32 c55 -89 192 -49 176 51 l-6 38 24 -18 c13 -10 29 -33 36 -51z
m-1014 -441 c142 -133 266 -206 392 -232 50 -10 83 -11 165 -1 92 11 296 65
346 92 37 19 59 12 66 -21 4 -17 5 -32 3 -34 -7 -6 -156 -57 -223 -76 -304
-86 -472 -62 -669 96 -86 68 -206 183 -206 198 0 13 30 47 43 47 5 0 43 -31
83 -69z m-227 -546 c154 -79 293 -92 535 -50 251 43 316 35 511 -62 44 -22
104 -48 133 -57 28 -10 52 -23 52 -29 0 -7 -13 -52 -29 -102 -16 -49 -48 -153
-71 -230 -22 -77 -59 -177 -82 -223 -76 -153 -201 -249 -375 -288 -106 -23
-322 -14 -488 21 -66 14 -151 32 -190 40 -130 26 -196 69 -240 155 -29 57 -55
179 -55 258 0 76 24 219 51 302 39 121 138 300 166 300 7 0 44 -16 82 -35z
m901 -1449 c125 -19 107 -42 -85 -118 -85 -34 -245 -78 -360 -101 -94 -18
-146 -21 -350 -21 -244 0 -300 5 -515 51 -50 11 -130 17 -242 17 -93 1 -168 5
-168 9 0 4 0 11 0 15 0 14 97 32 170 32 60 0 185 -18 345 -49 266 -51 635 -44
875 18 157 41 280 86 280 103 0 6 -74 9 -202 7 -197 -3 -203 -3 -203 16 0 18
10 21 95 30 107 12 249 8 360 -9z"/>
<path d="M3686 4438 c-10 -57 -26 -163 -26 -170 0 -5 7 -8 15 -8 10 0 16 17
21 60 4 33 10 63 15 66 4 2 18 -27 30 -66 11 -38 25 -70 30 -70 5 0 28 28 50
63 l40 62 -3 -69 c-2 -45 1 -71 8 -73 17 -6 21 13 29 114 10 126 -5 132 -70
25 -21 -34 -43 -61 -48 -59 -5 1 -19 36 -31 77 -14 51 -26 76 -38 78 -12 2
-18 -6 -22 -30z"/>
<path d="M4002 4403 c-37 -55 -92 -165 -87 -174 10 -15 19 -10 36 20 14 24 21
27 50 23 41 -6 59 -18 59 -43 0 -11 7 -19 15 -19 19 0 19 13 -1 92 -34 140
-40 147 -72 101z m33 -100 c-6 -17 -45 -3 -45 16 0 9 8 28 17 41 l17 24 8 -34
c4 -19 5 -40 3 -47z"/>
<path d="M4163 4400 c-18 -7 -23 -17 -23 -44 0 -28 7 -40 40 -66 22 -17 40
-40 40 -50 0 -24 -30 -33 -64 -20 -35 13 -36 13 -36 -4 0 -29 88 -37 114 -10
28 27 19 60 -25 97 -54 47 -51 73 9 70 29 -1 42 2 42 11 0 23 -56 32 -97 16z"/>
<path d="M4292 4378 c3 -7 14 -14 26 -16 19 -3 22 -10 22 -45 -1 -23 -5 -61
-9 -84 -8 -40 1 -75 14 -61 4 4 12 46 18 95 11 84 13 88 37 88 41 0 38 19 -5
27 -65 11 -107 10 -103 -4z"/>
<path d="M4466 4348 c-3 -12 -10 -58 -16 -102 -13 -88 -10 -96 48 -96 17 0 35
0 39 -1 4 0 9 4 11 9 2 6 -15 13 -37 17 -44 7 -46 10 -31 50 9 23 14 26 41 20
24 -6 30 -4 27 6 -3 8 -16 15 -30 17 -55 7 -41 74 14 69 18 -1 33 3 35 11 3 8
-7 12 -30 12 -20 0 -42 3 -51 6 -10 4 -17 -1 -20 -18z"/>
<path d="M4617 4329 c-5 -22 -20 -160 -19 -176 0 -4 5 -9 10 -11 6 -2 13 15
17 38 9 55 32 50 65 -13 14 -26 31 -47 38 -47 17 0 15 15 -8 59 -19 38 -19 39
0 56 26 24 27 81 1 94 -10 6 -36 13 -58 17 -36 6 -41 4 -46 -17z m86 -30 c16
-26 1 -49 -33 -49 -26 0 -30 3 -30 28 0 16 3 32 7 36 12 11 45 2 56 -15z"/>
<path d="M3785 4038 c-2 -7 -6 -38 -10 -68 -3 -30 -9 -72 -12 -92 l-5 -36 46
-7 c57 -9 60 -9 64 4 2 6 -7 11 -20 11 -13 0 -32 6 -42 13 -14 10 -15 17 -7
41 10 24 15 27 41 21 23 -5 30 -3 30 9 0 11 -9 16 -29 16 -36 0 -41 7 -34 43
5 24 10 27 44 27 43 0 52 14 17 24 -38 10 -78 7 -83 -6z"/>
<path d="M3987 4013 c-60 -105 -96 -183 -87 -188 11 -7 39 21 40 38 0 12 77 8
88 -5 5 -7 11 -22 13 -32 6 -29 29 -32 28 -4 -1 52 -45 193 -61 196 -9 2 -18
-1 -21 -5z m27 -65 c11 -44 7 -58 -17 -58 -34 0 -38 8 -20 46 19 40 28 43 37
12z"/>
<path d="M4090 4002 c0 -5 11 -13 25 -16 28 -7 30 -26 15 -126 -8 -55 0 -84
16 -58 5 7 13 49 19 93 10 79 10 80 38 77 25 -3 37 11 19 22 -18 11 -132 18
-132 8z"/>
<path d="M4266 3979 c-10 -32 -26 -190 -21 -199 3 -6 31 -10 61 -10 34 0 53 4
49 10 -3 6 -15 10 -26 10 -40 0 -58 17 -50 47 6 23 12 27 34 25 34 -4 55 7 36
19 -8 5 -24 9 -36 9 -20 0 -23 5 -23 36 0 35 1 35 37 32 22 -2 38 2 41 10 2 7
-5 12 -16 12 -11 0 -33 3 -51 6 -21 5 -32 2 -35 -7z"/>
<path d="M4416 3955 c-3 -8 -8 -55 -12 -105 -5 -64 -4 -90 4 -90 7 0 15 18 18
40 9 54 31 50 64 -13 14 -26 31 -47 38 -47 16 0 16 -1 -8 53 l-21 46 21 21
c21 21 26 55 12 78 -9 13 -64 32 -93 32 -9 0 -19 -7 -23 -15z m87 -36 c16 -26
1 -49 -33 -49 -26 0 -30 3 -30 28 0 16 3 32 7 36 12 11 45 2 56 -15z"/>
<path d="M7349 1866 c-20 -7 -52 -25 -71 -39 -20 -16 -42 -25 -51 -21 -25 9
-57 -14 -57 -43 0 -14 -15 -46 -34 -72 -61 -83 -81 -141 -56 -156 19 -11 69
18 75 45 6 21 8 22 16 8 5 -9 12 -44 14 -78 l5 -60 -35 -21 c-31 -19 -56 -62
-43 -75 3 -2 20 -6 39 -7 19 -1 37 -6 41 -12 4 -5 5 -49 2 -96 -4 -72 -2 -90
12 -103 14 -15 19 -15 38 -3 22 15 23 32 13 247 -2 25 2 35 13 35 8 0 16 -10
18 -22 2 -13 7 -23 12 -23 5 0 41 -41 80 -90 39 -50 85 -103 102 -118 17 -15
58 -51 91 -79 49 -44 62 -51 78 -42 29 15 26 67 -4 78 -13 5 -41 25 -62 45
-21 20 -40 36 -43 36 -22 0 -156 153 -144 165 4 3 -1 11 -11 16 -9 6 -26 28
-38 50 l-20 40 67 72 c81 87 129 180 121 234 -15 88 -77 122 -168 89z m93 -63
c39 -36 16 -101 -69 -191 -51 -54 -63 -62 -79 -54 -11 6 -27 13 -36 16 -15 4
-18 17 -18 70 0 68 2 71 97 147 40 33 78 37 105 12z"/>
<path d="M650 1785 c-47 -41 -92 -78 -100 -82 -8 -4 -43 -31 -77 -60 -35 -29
-80 -64 -100 -77 -65 -43 -72 -51 -67 -73 3 -11 16 -25 29 -31 19 -9 28 -6 61
24 21 19 50 42 66 52 15 9 28 20 28 24 0 10 132 119 138 113 2 -2 -10 -21 -27
-42 -27 -33 -29 -39 -17 -58 15 -23 53 -32 69 -16 6 6 19 11 29 11 10 0 30 7
43 16 39 26 49 11 13 -19 -18 -15 -60 -50 -93 -77 -33 -27 -65 -50 -71 -50 -7
0 -14 -6 -17 -14 -3 -8 -44 -42 -91 -77 -62 -46 -86 -70 -86 -85 0 -22 17 -34
47 -34 8 0 40 23 71 50 31 28 62 50 69 50 7 0 13 6 13 13 0 14 19 32 127 120
45 37 87 67 93 67 5 0 10 4 10 10 0 10 26 29 139 101 58 37 66 57 35 89 -12
12 -19 12 -50 1 -19 -7 -38 -10 -41 -7 -3 3 -18 -3 -32 -13 -27 -19 -67 -31
-111 -34 -14 -1 -28 -6 -32 -12 -4 -6 -8 -2 -8 8 0 9 9 26 19 36 10 10 22 28
25 39 4 11 15 27 26 37 25 23 26 51 1 65 -33 17 -43 12 -131 -65z"/>
<path d="M6790 1615 c-14 -8 -30 -14 -37 -15 -7 0 -29 -11 -49 -25 -20 -14
-43 -25 -51 -25 -24 0 -183 -109 -183 -126 0 -19 49 -42 58 -27 7 11 46 33 58
33 3 0 3 -30 -1 -67 -6 -59 -11 -71 -36 -91 -37 -30 -37 -47 1 -64 17 -7 30
-15 30 -18 0 -3 4 -44 9 -92 14 -126 43 -170 105 -154 19 5 162 156 201 214
23 33 27 59 9 66 -28 11 -52 -3 -78 -47 -42 -69 -153 -184 -166 -171 -12 12
-27 158 -22 217 4 44 28 63 125 99 63 23 77 39 56 64 -16 19 -70 11 -109 -15
-47 -33 -60 -33 -60 -1 0 16 5 51 10 77 10 46 13 49 69 74 32 15 72 30 89 34
38 8 53 25 45 53 -6 26 -35 28 -73 7z"/>
<path d="M1540 1461 c-41 -13 -91 -31 -110 -39 -143 -62 -148 -63 -211 -45
-70 19 -95 9 -78 -34 5 -14 8 -28 5 -30 -2 -3 -55 -26 -117 -53 -125 -54 -143
-70 -104 -96 24 -16 28 -15 105 25 44 22 84 41 90 41 5 0 31 13 57 29 27 16
61 31 76 35 30 7 137 -18 137 -32 0 -4 -92 -100 -205 -212 -119 -119 -204
-211 -203 -220 2 -9 14 -15 33 -15 26 0 47 18 140 120 61 65 153 161 205 212
102 100 103 100 168 61 30 -19 35 -19 49 -5 20 20 10 67 -15 67 -10 0 -26 6
-36 13 -16 11 -9 19 64 82 50 43 79 74 75 83 -3 7 -5 17 -5 22 0 18 -49 14
-120 -9z m-66 -115 c-30 -27 -46 -30 -79 -16 -18 7 -18 8 -3 15 33 13 103 33
107 29 2 -1 -10 -14 -25 -28z"/>
<path d="M6112 1428 c-6 -13 -14 -42 -17 -65 -4 -24 -12 -44 -18 -44 -7 -1
-19 -3 -27 -4 -8 -1 -31 -8 -50 -17 -19 -9 -54 -19 -77 -23 -36 -6 -43 -10
-43 -30 0 -31 37 -59 55 -41 17 16 125 40 135 29 4 -4 4 -33 -1 -63 -9 -53
-44 -279 -54 -350 -3 -19 -12 -66 -21 -104 -14 -63 -14 -70 2 -87 17 -19 18
-19 39 1 22 20 36 100 51 274 5 57 32 224 40 246 3 8 7 37 9 63 4 54 15 72 48
80 12 3 47 12 77 20 30 8 67 17 83 21 32 7 36 35 9 59 -16 15 -22 15 -67 0
-28 -9 -62 -22 -77 -29 -40 -21 -47 -18 -41 21 9 57 -32 89 -55 43z"/>
<path d="M1988 1296 c-116 -34 -178 -85 -178 -146 0 -26 54 -68 97 -76 34 -6
54 -8 134 -13 14 0 33 -7 43 -14 41 -30 -32 -86 -171 -133 -90 -30 -168 -39
-208 -24 l-30 11 43 41 c56 52 54 77 -4 66 -32 -7 -48 -17 -68 -46 -49 -71
-26 -125 59 -138 156 -23 445 109 445 204 0 58 -41 82 -154 89 -76 5 -136 23
-136 42 0 11 30 36 65 54 70 35 245 62 245 39 0 -18 -38 -42 -66 -42 -16 0
-38 -7 -49 -16 -20 -15 -20 -15 5 -34 14 -11 35 -20 48 -20 72 0 156 98 124
146 -26 40 -129 44 -244 10z"/>
<path d="M5690 1263 c-8 -2 -37 -33 -65 -68 -27 -36 -56 -65 -62 -65 -7 0 -13
-7 -13 -15 0 -8 -23 -46 -51 -84 -46 -64 -56 -72 -105 -86 -67 -19 -86 -50
-48 -76 l24 -15 -70 -105 c-69 -102 -81 -131 -59 -144 15 -10 59 3 59 18 0 13
43 82 82 131 12 16 23 35 24 43 3 20 40 76 66 99 21 19 88 44 117 44 13 0 13
-5 -15 -135 -8 -38 -19 -90 -24 -115 -31 -153 -62 -287 -70 -302 -7 -12 -7
-18 0 -18 5 0 10 -7 10 -15 0 -9 6 -12 18 -8 31 11 52 36 52 62 0 14 6 62 14
106 8 44 22 123 31 175 9 52 20 109 24 125 5 17 14 56 21 87 13 59 23 68 82
68 39 0 58 10 58 30 0 30 -25 43 -71 35 -37 -6 -40 -5 -36 11 3 11 15 53 27
94 12 41 23 80 25 87 5 15 -26 40 -45 36z m-70 -218 c-8 -24 -19 -37 -36 -41
-14 -4 -27 -5 -29 -2 -2 2 12 25 33 50 40 49 50 47 32 -7z"/>
<path d="M2653 1241 c-10 -11 -26 -31 -36 -45 -18 -26 -57 -36 -57 -15 0 6 -8
8 -19 4 -10 -3 -49 2 -86 11 -57 14 -69 15 -80 3 -24 -24 2 -61 47 -65 58 -5
118 -24 118 -37 -1 -7 -14 -28 -30 -47 -17 -19 -30 -38 -30 -43 0 -5 -19 -32
-42 -61 -24 -30 -68 -86 -98 -126 -30 -40 -79 -101 -108 -136 -42 -50 -51 -68
-46 -87 4 -19 10 -24 27 -19 20 5 102 82 97 90 -2 2 19 34 46 70 27 37 49 69
49 72 1 15 142 190 153 190 7 0 11 4 8 8 -3 5 9 28 26 51 30 42 32 43 75 36
24 -3 69 -13 99 -21 30 -8 63 -14 73 -14 23 0 34 26 21 50 -9 17 -29 23 -132
36 -27 4 -48 8 -48 10 0 2 9 18 19 35 33 53 -6 94 -46 50z"/>
<path d="M4883 1113 c-10 -7 -34 -13 -53 -14 -19 -1 -62 -10 -95 -20 -33 -10
-73 -22 -90 -27 -34 -10 -45 -42 -20 -62 12 -10 21 -10 44 0 54 22 60 12 34
-56 -19 -49 -30 -65 -54 -74 -52 -22 -55 -54 -6 -73 11 -4 15 -12 11 -19 -4
-6 -9 -23 -10 -37 -1 -14 -7 -49 -12 -78 -16 -91 9 -153 63 -153 22 0 214 119
263 163 22 20 30 57 13 57 -5 0 -16 3 -24 6 -9 3 -31 -9 -54 -29 -45 -40 -189
-137 -203 -137 -20 0 -11 76 27 228 8 33 51 51 137 59 62 5 77 9 82 25 14 45
-26 54 -138 33 -47 -9 -47 -3 -9 74 29 57 31 58 87 69 32 7 79 12 105 12 54 0
59 4 52 42 -5 26 -7 27 -68 25 -35 -1 -71 -7 -82 -14z"/>
<path d="M3055 1100 c-57 -4 -70 -8 -73 -23 -7 -34 18 -49 65 -42 24 3 43 3
43 -2 0 -4 -17 -33 -38 -63 -29 -43 -43 -56 -67 -58 -31 -4 -55 -18 -55 -33 0
-5 9 -18 21 -30 l21 -21 -25 -52 c-66 -135 -63 -214 8 -228 22 -4 248 79 290
106 31 21 32 43 1 57 -19 9 -30 7 -62 -13 -22 -13 -64 -32 -94 -43 -30 -10
-66 -25 -80 -32 -37 -19 -60 -16 -60 8 0 29 73 182 99 208 24 24 76 27 150 10
50 -11 74 1 69 35 -3 24 -34 33 -115 35 -29 0 -53 4 -53 8 0 3 18 30 40 60 31
40 47 53 68 54 43 3 104 -2 142 -10 48 -10 60 -4 60 30 0 16 -6 32 -12 34 -21
7 -268 11 -343 5z"/>
<path d="M3755 1048 c-4 -16 -28 -33 -76 -57 -71 -34 -112 -73 -107 -100 4
-21 63 -24 79 -5 6 8 16 14 21 14 11 0 3 -28 -26 -92 -19 -45 -24 -48 -57 -48
-21 0 -47 -8 -60 -19 l-24 -20 22 -20 c12 -12 29 -21 38 -21 23 0 19 -15 -31
-106 -51 -94 -53 -128 -6 -122 22 2 32 15 59 71 18 37 36 67 40 67 5 0 9 16
10 36 2 34 26 74 45 74 5 0 9 -12 8 -27 -1 -16 -1 -30 0 -33 1 -3 10 -48 20
-100 21 -114 29 -140 69 -250 35 -93 51 -116 75 -107 33 13 34 47 3 104 -16
29 -26 60 -23 68 3 8 1 15 -4 15 -24 0 -80 211 -59 218 6 3 6 9 -1 17 -6 7
-10 35 -8 62 l3 48 60 20 c139 48 225 103 244 158 37 106 -41 177 -178 161
-39 -4 -61 -3 -65 5 -4 6 -20 11 -36 11 -22 0 -31 -6 -35 -22z m252 -69 c7 -6
13 -24 13 -39 0 -33 -64 -96 -107 -106 -16 -4 -32 -10 -38 -14 -5 -5 -27 -11
-48 -15 -29 -6 -42 -3 -57 10 -11 10 -26 15 -34 12 -12 -5 -14 -2 -7 11 4 9
19 39 32 67 26 55 52 72 127 85 53 9 99 5 119 -11z"/>
</g>
</svg>
